<svg width="40" height="40" viewBox="0 0 40 40" fill="none" xmlns="http://www.w3.org/2000/svg">
<circle cx="20" cy="20" r="20" fill="#FF3D00"/>
<g clip-path="url(#clip0_353_2522)">
<path d="M29.914 27.4421C29.6467 27.4426 29.3862 27.3562 29.171 27.1957L19.7675 20.1758L10.364 27.1957C10.232 27.2944 10.082 27.3659 9.92271 27.406C9.7634 27.4461 9.59784 27.4541 9.4355 27.4294C9.27315 27.4048 9.11719 27.348 8.97652 27.2624C8.83585 27.1767 8.71322 27.0639 8.61565 26.9303C8.51807 26.7967 8.44745 26.645 8.40782 26.4838C8.36819 26.3226 8.36033 26.155 8.38468 25.9908C8.43386 25.659 8.61128 25.3605 8.8779 25.1611L19.0244 17.5788C19.2395 17.4178 19.4999 17.3308 19.7675 17.3308C20.035 17.3308 20.2955 17.4178 20.5105 17.5788L30.6571 25.1611C30.8689 25.3191 31.026 25.5408 31.106 25.7946C31.1859 26.0483 31.1846 26.3211 31.1022 26.574C31.0198 26.827 30.8606 27.0471 30.6472 27.203C30.4338 27.3589 30.1772 27.4426 29.914 27.4421Z" fill="white"/>
<path d="M29.914 20.8076C29.6467 20.8081 29.3862 20.7217 29.171 20.5612L19.7675 13.5413L10.364 20.5612C10.0974 20.7606 9.76338 20.8447 9.4355 20.7949C9.10763 20.7451 8.81272 20.5656 8.61565 20.2958C8.41858 20.026 8.3355 19.688 8.38469 19.3562C8.43387 19.0244 8.61128 18.726 8.8779 18.5266L19.0244 10.9443C19.2395 10.7832 19.4999 10.6963 19.7675 10.6963C20.035 10.6963 20.2955 10.7832 20.5105 10.9443L30.6571 18.5266C30.8689 18.6846 31.026 18.9063 31.106 19.16C31.1859 19.4138 31.1846 19.6866 31.1022 19.9395C31.0198 20.1924 30.8606 20.4126 30.6472 20.5685C30.4338 20.7244 30.1772 20.8081 29.914 20.8076Z" fill="white"/>
</g>
<defs>
<clipPath id="clip0_353_2522">
<rect width="22.7907" height="16.7442" fill="white" transform="translate(8.37231 10.698)"/>
</clipPath>
</defs>
</svg>
